# xmcd CD database file
# Generated: Sat May 5 23:18:40 2001 by KSCD
# 
# Track frame offsets:
#       150
#       13787
#       24487
#       40087
#       53437
#       67087
#       77625
#       92325
#       106975
#       118587
#       130625
#       143037
#       157625
#       173787
#       195837
#
# Disc length: 2885 seconds
#
# Revision: 4
# Processed by: cddbd v1.4b41PL1 Copyright (c) Steve Scherf et al.
# Submitted via: Kscd 1.3.0
#
DISCID=a90b430f
DTITLE=Aretha Franklin - Nobody Like You
DYEAR=1900
DGENRE=
TTITLE0=My Guy
TTITLE1=The Shoop Shoop Song
TTITLE2=Drinking Again
TTITLE3=Operation Heartbreak
TTITLE4=God Bless The Child
TTITLE5=Nobody Like You
TTITLE6=Until You Were Gone
TTITLE7=I Wonder (Where Are You Tonight)
TTITLE8=Mockingbird
TTITLE9=Take A Look
TTITLE10=Every Little Bit Hurts
TTITLE11=Try A Little Tenderness
TTITLE12=Without The One You Love
TTITLE13=Only The Lonely
TTITLE14=This Bitter Earth
EXTD=
EXTT0=
EXTT1=
EXTT2=
EXTT3=
EXTT4=
EXTT5=
EXTT6=
EXTT7=
EXTT8=
EXTT9=
EXTT10=
EXTT11=
EXTT12=
EXTT13=
EXTT14=
PLAYORDER=
